<?xml version="1.0" encoding="iso-8859-1"?>
<!-- Generator: Adobe Illustrator 19.0.0, SVG Export Plug-In . SVG Version: 6.00 Build 0)  -->
<svg xmlns="http://www.w3.org/2000/svg" xmlns:xlink="http://www.w3.org/1999/xlink" version="1.1" id="Layer_1" x="0px" y="0px" viewBox="0 0 512 512" style="enable-background:new 0 0 512 512;" xml:space="preserve" width="512px" height="512px">
<g>
	<g>
		<path d="M67.353,0v512h377.295V0H67.353z M160.852,466.786h-48.286V418.5h48.286V466.786z M160.852,387.258h-48.286v-48.286    h48.286V387.258z M160.852,307.732h-48.286v-48.286h48.286V307.732z M160.852,228.205h-48.286v-48.286h48.286V228.205z     M240.379,466.786h-48.286V418.5h48.286V466.786z M240.379,387.258h-48.286v-48.286h48.286V387.258z M240.379,307.732h-48.286    v-48.286h48.286V307.732z M240.379,228.205h-48.286v-48.286h48.286V228.205z M319.906,466.786H271.62V418.5h48.286V466.786z     M319.906,387.258H271.62v-48.286h48.286V387.258z M319.906,307.732H271.62v-48.286h48.286V307.732z M319.906,228.205H271.62    v-48.286h48.286V228.205z M399.433,466.786h-48.286V418.5h48.286V466.786z M399.433,387.258h-48.286v-48.286h48.286V387.258z     M399.433,307.732h-48.286v-48.286h48.286V307.732z M399.433,228.205h-48.286v-48.286h48.286V228.205z M399.433,148.678H112.567    V45.214h286.866V148.678z" fill="#db5793"/>
	</g>
</g>
<g>
</g>
<g>
</g>
<g>
</g>
<g>
</g>
<g>
</g>
<g>
</g>
<g>
</g>
<g>
</g>
<g>
</g>
<g>
</g>
<g>
</g>
<g>
</g>
<g>
</g>
<g>
</g>
<g>
</g>
</svg>
